<?xml version="1.0" encoding="utf-8"?>
<!-- Generator: Adobe Illustrator 19.2.0, SVG Export Plug-In . SVG Version: 6.00 Build 0)  -->
<svg version="1.1" id="Layer_1" xmlns="http://www.w3.org/2000/svg" xmlns:xlink="http://www.w3.org/1999/xlink" x="0px" y="0px"
	 viewBox="0 0 160 80" style="enable-background:new 0 0 160 80;" xml:space="preserve">
<style type="text/css">
	.st0{fill:#FFFFFF;}
</style>
<polygon class="st0" points="18.5,24.8 22.6,24.8 22.6,55.4 18.5,55.4 18.5,67.1 40,67.1 40,55.4 36.2,55.4 36.2,46.4 49.1,46.4 
	49.1,35.2 36.2,35.2 36.2,24.8 47.5,24.8 47.5,28.5 60.9,28.5 60.9,12.9 18.5,12.9 "/>
<polygon class="st0" points="88.9,12.9 67.4,12.9 67.4,24.8 71.4,24.8 71.4,55.4 67.5,55.4 67.5,67.1 88.9,67.1 88.9,55.4 85,55.4 
	85,24.8 88.9,24.8 "/>
<polygon class="st0" points="121.4,24.9 123.9,24.9 123.9,54.3 123.9,54.3 122.8,55.4 122.8,55.4 114,55.4 112.8,54.3 112.8,24.8 
	115.1,24.8 115.1,12.9 95.3,12.9 95.3,24.8 99.2,24.8 99.2,56.9 109,67.1 127.8,67.1 137.6,56.9 137.6,24.8 141.4,24.8 141.4,12.9 
	121.4,12.9 "/>
<g>
	<path class="st0" d="M42.5,69.7H16V52.8l4,0V27.4l-4,0V10.3h47.5V31H44.7v-3.6h-5.9v5.3l12.9,0v16.4l-12.9,0v3.8h3.7V69.7z
		 M17.3,68.3h23.9V54.2h-3.7v-6.5l12.9,0V34l-12.9,0V26h8.6v3.6h16.1v-18H17.3v14.4l4,0v28.1l-4,0V68.3z"/>
</g>
<g>
	<path class="st0" d="M91.4,69.7H64.9V52.9h4V27.4h-4v-17h26.6v17h-3.9v25.5h3.8V69.7z M66.2,68.3h23.9V54.2h-3.8V26h3.9V11.7H66.2
		V26h4v28.1h-4V68.3z"/>
</g>
<g>
	<path class="st0" d="M129.1,69.7h-21.5l-11-11.6V27.4h-3.8v-17h25v17h-2.4v25.5h5.9l0-25.5l-2.7,0v-17l25.3,0v17h-3.9v30.7
		L129.1,69.7z M108.2,68.4h20.3l10.2-10.8V26h3.9V11.6l-22.7,0V26l2.7,0l0,28.2h-8.6V26h2.4V11.6H94.1V26H98v31.5L108.2,68.4z"/>
</g>
</svg>
