<?xml version="1.0" encoding="utf-8"?>
<!-- Generator: Adobe Illustrator 19.2.0, SVG Export Plug-In . SVG Version: 6.00 Build 0)  -->
<svg version="1.1" id="Layer_1" xmlns="http://www.w3.org/2000/svg" xmlns:xlink="http://www.w3.org/1999/xlink" x="0px" y="0px"
	 viewBox="0 0 160 80" style="enable-background:new 0 0 160 80;" xml:space="preserve">
<style type="text/css">
	.st0{fill:#FFFFFF;}
</style>
<g>
	<g>
		<g>
			<g>
				<path class="st0" d="M27.1,47.3c0,7.4,5.6,11.2,13.2,11.2C50.6,58.5,55,54,55,43.9V31.6c0-5.9-1.7-8.6-4.2-9.9
					c-0.4-0.2-0.8-0.4-0.8-0.6c0-0.2,0.3-0.2,0.5-0.2c1.7,0,2.4,0.2,5.2,0.2c2.6,0,4.4-0.2,5.1-0.2c0.6,0,0.9,0.1,0.9,0.2
					c0,0.1-0.3,0.4-0.9,0.8c-1.9,1.1-4.1,3.6-4.2,9.7v12.2C56.6,55.2,51,60,39,60c-9.5,0-19.1-2-19.1-12.6v-21
					c0-2.4-0.7-4.4-2.7-4.8c-0.3-0.1-0.6-0.3-0.6-0.4c0-0.2,0.4-0.2,0.9-0.2c1,0,4,0.2,5.9,0.2c2,0,5-0.2,5.9-0.2
					c0.6,0,0.9,0.1,0.9,0.2c0,0.1-0.3,0.2-0.6,0.4c-2,0.5-2.7,2.4-2.7,4.8L27.1,47.3L27.1,47.3z"/>
				<path class="st0" d="M59.7,20.4l-4,0.2l-3.2-0.1l-2-0.1c-0.7,0-1.1,0.4-1.1,0.9c0,0.6,0.6,0.9,1.2,1.2c1.6,0.8,3.8,2.6,3.8,9.3
					v12.3c0,9.8-4.2,13.9-14.1,13.9c-7.7,0-12.5-4.1-12.5-10.6V26.4c0-2.4,0.7-3.9,2.2-4.2c1.1-0.4,1.1-0.8,1.1-1
					c0-0.9-1.1-0.9-1.6-0.9l-2.1,0.1l-3.9,0.1l-3.9-0.1l-2.1-0.1c-0.4,0-1.6,0-1.6,0.9c0,0.2,0,0.6,1,1c1.5,0.4,2.2,1.8,2.2,4.2v21
					c0,13.3,14.9,13.3,19.8,13.3c12.6,0,18.2-5.2,18.2-16.8V31.6c0-4.5,1.4-7.6,3.9-9.1c0.9-0.6,1.2-0.9,1.2-1.3
					c0-0.9-1.1-0.9-1.6-0.9L59.7,20.4z M20.6,47.3v-21c0-2.6-0.8-4-1.7-4.7c0.3,0,0.7,0,0.7,0l3.9,0.2l3.9-0.2c0,0,0.4,0,0.7,0
					c-0.9,0.7-1.7,2.1-1.7,4.7v20.9c0,7.2,5.4,11.9,13.8,11.9c2.6,0,4.9-0.3,6.9-0.9c-2.2,0.7-4.9,1.1-8.1,1.1
					C26.4,59.3,20.6,55.5,20.6,47.3z M59.8,21.7c0,0,0.2,0,0.3,0c-1.9,1.3-4.1,4.1-4.2,10v12.2c0,7.8-2.7,12.4-8.6,14.3
					c5.7-1.8,8.3-6.4,8.3-14.3V31.6c0-5.1-1.2-8.3-3.8-10c0.2,0,0.5,0,0.5,0l3.3,0.1L59.8,21.7z"/>
			</g>
			<g>
				<path class="st0" d="M103.1,54.6C97.9,58.6,91,60,84.4,60C72.3,60,61,53.5,61,40c0-12.1,11.3-20,23.4-20
					c5.7,0,12.7,1.4,17.8,4.5l-1.9,5.5c-0.2,0.7-0.7,2-0.9,2c-0.2,0-0.5-0.9-0.7-1.5c-1.3-5.1-5.1-8.8-14.3-9
					c-11.3,0-15.1,9.8-15.1,18.5c0,8.8,4.3,18.5,17.6,18.5c6.1,0,10.6-3.1,13.4-9.1c0.3-0.7,0.4-1.2,0.7-1.2c0.2,0,0.3,0.2,0.6,1.1
					L103.1,54.6L103.1,54.6z"/>
				<path class="st0" d="M60.4,40c0,14.3,12.1,20.6,24,20.6c7.9,0,14.3-1.8,19.1-5.5l0.4-0.3l-1.7-5.8c-0.3-0.9-0.4-1.5-1.2-1.5
					c-0.7,0-0.9,0.6-1.1,1.1l-0.2,0.5c-2.6,5.7-7,8.7-12.8,8.7c-15.7,0-16.9-13.7-16.9-17.9c0-8.6,3.8-17.9,14.5-17.9
					c7.8,0.1,12.3,2.9,13.7,8.5c0.5,1.7,0.8,2,1.3,2c0.6,0,0.8-0.5,1.4-2.2l2.2-6.2l-0.4-0.3c-5.6-3.4-13-4.6-18.1-4.6
					C72.6,19.4,60.4,27.1,60.4,40z M61.6,40c0-12.1,11.6-19.3,22.7-19.3c4.8,0,11.7,1.1,17,4.1c-0.3,0.9-1.8,5.2-1.8,5.2
					c0,0.1-0.1,0.3-0.2,0.5c0-0.1,0-0.1-0.1-0.2c-1.6-6.2-6.5-9.3-14.9-9.5c-11.6,0-15.8,9.9-15.8,19.2c0,9.3,4.8,19.2,18.2,19.2
					c6.3,0,11.1-3.3,14-9.4c0,0,0-0.1,0.1-0.2c0.1,0.4,1.1,3.6,1.4,4.8c-4.4,3.2-10.6,5-17.9,5C73.1,59.3,61.6,53.4,61.6,40z"/>
			</g>
			<g>
				<path class="st0" d="M115.9,38.2h11.4c4.5,0,8.5-2,9.2-4.4c0.1-0.4,0.2-0.5,0.4-0.5c0.2,0,0.3,0.2,0.3,0.8v10
					c0,0.4-0.1,0.6-0.2,0.6c-0.2,0-0.4-0.6-0.7-1.1c-1.7-2.9-6.5-3.9-10.8-3.9h-9.6v8.5c0,5.4,0.7,9.4,3.2,10.1
					c0.7,0.2,1.3,0.4,1.3,0.5c0,0.1-0.1,0.2-0.4,0.2s-4.2-0.2-7.7-0.2c-3.5,0-7,0.2-7.3,0.2c-0.3,0-0.6-0.1-0.6-0.2
					c0-0.2,0.6-0.4,0.9-0.5c2.5-1.2,3.3-2.9,3.3-7.3V27.8c0-3.4-0.3-5.2-2.1-5.9c-0.4-0.1-1-0.2-1-0.5c0-0.1,0.2-0.2,1.1-0.2h34.3
					l1.7,5.5c0.2,0.6,0.7,2,0.7,2.2c0,0.2,0,0.4-0.2,0.4c-0.2,0-0.6-0.4-0.8-0.7c-3.6-3.8-9.4-5.9-15.2-5.9h-11.3L115.9,38.2
					L115.9,38.2z"/>
				<path class="st0" d="M106.7,20.5c-0.5,0-1.7,0-1.7,0.9c0,0.7,0.7,0.9,1.2,1l0.2,0.1c1.3,0.5,1.7,1.7,1.7,5.3V51
					c0,4.5-0.9,5.7-3,6.7c0,0-0.3,0.1-0.3,0.1c-0.5,0.2-1,0.4-1,1c0,0.2,0.1,0.8,1.2,0.8l0.7,0l6.6-0.2l7,0.2l0.7,0
					c0.9,0,1-0.6,1-0.8c0-0.6-0.6-0.8-1.3-1l-0.4-0.1c-1.9-0.5-2.8-3.6-2.8-9.5c0,0,0-6.7,0-7.8c1.1,0,8.9,0,8.9,0
					c5.1,0,9,1.3,10.3,3.6c0,0,0.2,0.4,0.2,0.4c0.2,0.4,0.5,1,1,1c0.3,0,0.9-0.2,0.9-1.2v-10c0-1.2-0.6-1.4-1-1.4
					c-0.7,0-0.9,0.6-1,1c-0.5,1.9-4,4-8.5,4c0,0-9.7,0-10.8,0c0-1.1,0-13.2,0-14.3c1.1,0,10.6,0,10.6,0c5.9,0,11.4,2.1,14.8,5.7
					c0.5,0.7,0.9,0.9,1.3,0.9c0.3,0,0.8-0.1,0.8-1.1c0-0.2-0.1-0.4-0.4-1.4l-0.3-0.9c0,0-1.7-5.5-1.7-5.5l-0.1-0.5L106.7,20.5
					L106.7,20.5z M140.5,21.8c0.2,0.8,1.5,5.1,1.5,5.1c0,0,0.1,0.4,0.2,0.7c-3.7-3.5-9.2-5.6-15.1-5.6h-11.9v16.9h12.1
					c4.1,0,7.8-1.6,9.3-3.8c0,1.5,0,6.2,0,7.8c-2.4-3.4-8.5-3.9-11.1-3.9h-10.2v9.1c0,5.6,0.8,8.8,2.5,10.1c-1.9,0-5.5-0.1-5.5-0.1
					s-4.2,0.1-5.7,0.1c2-1.3,2.7-3.3,2.7-7.3V27.8c0-2.6-0.1-4.8-1.6-5.9C109.8,21.8,139.6,21.8,140.5,21.8z"/>
			</g>
		</g>
	</g>
</g>
</svg>
