<?xml version="1.0" encoding="utf-8"?>
<!-- Generator: Adobe Illustrator 19.2.0, SVG Export Plug-In . SVG Version: 6.00 Build 0)  -->
<svg version="1.1" id="Layer_1" xmlns="http://www.w3.org/2000/svg" xmlns:xlink="http://www.w3.org/1999/xlink" x="0px" y="0px"
	 viewBox="0 0 160 80" style="enable-background:new 0 0 160 80;" xml:space="preserve">
<style type="text/css">
	.st0{fill:#FFFFFF;}
</style>
<g>
	<polygon class="st0" points="100.2,60.6 100.2,44.4 115.2,44.4 115.2,33.7 100.2,33.7 100.2,18.6 116.6,18.6 116.6,24.5 
		127.4,24.5 127.4,8 84.1,8 84.1,18.6 88.2,18.6 88.2,60.6 84.2,60.6 84.2,71.3 104.1,71.3 104.1,60.6 	"/>
	<path class="st0" d="M79.1,47.4V18.6h4V8h-20v10.6H67v25.2c0,10.6-1.2,15.6-8.8,15.6s-8.8-5.1-8.8-15.6V18.6h3.9V8H33.2v10.6h4
		v28.8c0,6.3,0,11.4,3,16.1c3.3,5.2,9.3,8.6,18,8.6C73.6,72,79.1,64,79.1,47.4L79.1,47.4z"/>
</g>
</svg>
