<?xml version="1.0" encoding="utf-8"?>
<!-- Generator: Adobe Illustrator 19.2.0, SVG Export Plug-In . SVG Version: 6.00 Build 0)  -->
<svg version="1.1" id="svg9292" xmlns:svg="http://www.w3.org/2000/svg"
	 xmlns="http://www.w3.org/2000/svg" xmlns:xlink="http://www.w3.org/1999/xlink" x="0px" y="0px" viewBox="0 0 160 80"
	 style="enable-background:new 0 0 160 80;" xml:space="preserve">
<style type="text/css">
	.st0{fill:#FFFFFF;}
</style>
<g id="layer1" transform="translate(-459.33288,-643.94805)">
	<path id="path3651" class="st0" d="M544.2,686.1v6.9h-1.7c0,0-0.3-6.3-5.3-6.5v13.9c0,0,21,3.5,20.2-7.2
		C557.4,693.3,557.8,685.3,544.2,686.1 M538.6,699.2v-10.7c2.9,0.9,2.6,6.1,2.6,6.1h4.5v-7.1c10.7-0.6,10.4,6.1,10.4,6.1
		C556.7,702.1,538.6,699.2,538.6,699.2z"/>
	<path id="path3653" class="st0" d="M522,673c0,5.6,7.4,5.8,7.4,5.8v-11.9C522,667.8,522,673,522,673 M527.8,668.6v8.6
		c-5-0.9-4.3-4.5-4.3-4.5C523.7,669.5,527.8,668.6,527.8,668.6z"/>
	<path id="path3655" class="st0" d="M545.7,677.5V671H541c0.3,5.4-2.4,6.1-2.4,6.1l0-8.4c10,0.8,16.2,8.6,16.2,8.6l4.7-2.5l-10.2-13
		l-3.7,1c-2.6-1-6.5-1.2-6.5-1.2h11.7l14.3,10.3l3.8-4l-14.2-16l-2,1.1h-38.1v5.4c9.1-0.2,12.8,2.8,12.8,2.8
		c-13.6,1.1-13,13.4-13,13.4c0.9,12.3,13.4,13,13.4,13v9.9c-5.4-0.6-13.2-10.3-13.2-10.3l-4.8,3.5l13.6,16.9
		c2.4-1.3,4.4-1.5,4.4-1.5c0.1,6.2-7.2,5.4-7.2,5.4l0,4.5h26.1v-4.5c-7.2,0.5-7.8-4.9-7.8-4.9c8.5,1.1,15.3-0.2,15.3-0.2
		c15.9-3.7,11.2-18.3,11.2-18.3C562,677.2,545.7,677.5,545.7,677.5 M556.8,704.3c0,0-5.1,2.6-19.5,0.8c0,0-0.1,7.4,7.9,7.6v1.9
		h-22.9v-1.9c0,0,7.6,0.6,7.1-8.2c0,0-3.1,0.1-5.4,1.2L512,691.1l2.4-1.8c0,0,8.1,9.9,14.9,10.2v-13.2c0,0-12.8-0.4-13.2-12.1
		c0,0-0.9-11.1,13.2-11.6v-1.6c0,0-3.5-3.9-13.2-3.9v-2.6h37l1.3-0.6l12.5,13.8l-2.2,2.3l-13.3-9.6h-14.1v2.4c0,0,3.8,0.1,8.2,1.6
		l3-1l8.6,10.8l-2,1.1c0,0-7.3-7.8-17.9-8.4v12.3c0,0,5.1-0.4,5-6.7h1.9l0,6.5c0,0,17.1-1.1,19.9,9.7
		C564.1,688.7,568,699.8,556.8,704.3z"/>
	<path id="path3657" class="st0" d="M544.2,679l0-6.5h-1.9c0.1,6.3-5,6.7-5,6.7v-12.3c10.6,0.6,17.9,8.4,17.9,8.4l2-1.1l-8.6-10.8
		l-3,1c-4.5-1.5-8.2-1.6-8.2-1.6v-2.4h14.1l13.3,9.6l2.2-2.3l-12.5-13.8l-1.3,0.6h-37v2.6c9.7,0,13.2,3.9,13.2,3.9v1.6
		c-14.1,0.4-13.2,11.6-13.2,11.6c0.4,11.7,13.2,12.1,13.2,12.1v13.2c-6.9-0.3-14.9-10.2-14.9-10.2l-2.4,1.8l11.9,14.7
		c2.3-1.1,5.4-1.2,5.4-1.2c0.5,8.8-7.1,8.2-7.1,8.2v1.9h22.9v-1.9c-8-0.2-7.9-7.6-7.9-7.6c14.5,1.7,19.5-0.8,19.5-0.8
		c11.2-4.5,7.4-15.6,7.4-15.6C561.3,677.9,544.2,679,544.2,679 M529.3,678.8c0,0-7.4-0.2-7.4-5.8c0,0,0-5.2,7.4-6.1V678.8
		 M537.2,700.5v-13.9c5,0.2,5.3,6.5,5.3,6.5h1.7v-6.9c13.5-0.8,13.2,7.2,13.2,7.2C558.2,704,537.2,700.5,537.2,700.5z"/>
</g>
</svg>
